<?xml version="1.0" encoding="UTF-8"?>
<svg width="1410px" height="851px" viewBox="0 0 1410 851" version="1.1" xmlns="http://www.w3.org/2000/svg" xmlns:xlink="http://www.w3.org/1999/xlink">
    <!-- Generator: Sketch 53.2 (72643) - https://sketchapp.com -->
    <title>Group 3</title>
    <desc>Created with Sketch.</desc>
    <g id="Logout-b" stroke="none" stroke-width="1" fill="none" fill-rule="evenodd">
        <g id="Login" transform="translate(-30.000000, -78.000000)" fill-rule="nonzero">
            <g id="Group-3" transform="translate(30.000000, 78.000000)">
                <g id="cube" transform="translate(948.000000, 144.000000)">
                    <path d="M13.536488,388 C8.86943668,388 4.33271035,385.688278 1.82483058,381.550094 C-1.9193778,375.366407 0.282061386,367.450615 6.74548772,363.868457 L64.6944176,331.743615 C71.157843,328.164827 79.4317336,330.270988 83.1759419,336.451304 C86.9201494,342.634991 84.7151881,350.550784 78.2552839,354.132942 L20.3028319,386.254414 C18.1718388,387.437234 15.8365517,388 13.536488,388 Z" id="Path" fill="#00347B"></path>
                    <path d="M448.463635,389 C446.16007,389 443.828326,388.437282 441.69383,387.254561 L383.745427,355.132414 C377.282059,351.550557 375.08064,343.635429 378.824813,337.452261 C382.568988,331.272463 390.842803,329.163109 397.30617,332.744966 L455.254574,364.867113 C461.717941,368.44897 463.91936,376.364099 460.175186,382.547267 C457.667329,386.685103 453.127122,389 448.463635,389 L448.463635,389 Z" id="Path" fill="#001737"></path>
                    <path d="M231.5,71 C224.044934,71 218,65.2197962 218,58.0878523 L218,12.9087854 C218,5.78020384 224.044934,0 231.5,0 C238.955067,0 245,5.78020384 245,12.9087854 L245,58.0878523 C245,65.2197962 238.958583,71 231.5,71 Z" id="Path" fill="#00347B"></path>
                    <path d="M231.250704,0 C231.164748,0 231.085955,0.0100878306 231,0.0134501539 L231,70.9865498 C231.082374,70.9865498 231.164748,71 231.250704,71 C238.843439,71 245,65.2197962 245,58.0878523 L245,12.9087854 C245,5.78020384 238.84702,0 231.250704,0 Z" id="Path" fill="#001737"></path>
                    <path d="M231.001761,258 C228.733425,258 226.461568,257.374177 224.492624,256.125876 L143.227034,204.651049 C139.961899,202.58282 138,199.102303 138,195.374135 L138,109.151039 C138,102.993202 143.255212,98.0033464 149.736171,98.0033464 L312.267351,98 C315.377507,98 318.364384,99.1780209 320.562274,101.266331 C322.763686,103.357987 324,106.195946 324,109.151039 L324,195.374135 C324,199.102303 322.041623,202.58282 318.772966,204.651049 L237.510898,256.125876 C235.541954,257.377523 233.270097,258 231.001761,258 Z" id="Path" fill="#FFDA2D"></path>
                    <path d="M320.565731,101.266331 C318.364277,99.1780209 315.377344,98 312.267129,98 L231,98.0033464 L231,258 C233.268379,258 235.540279,257.377523 237.50926,256.129223 L318.776389,204.651049 C322.041586,202.586166 324,199.102303 324,195.374135 L324,109.151039 C324,106.195946 322.763663,103.357987 320.565731,101.266331 Z" id="Path" fill="#FDBF00"></path>
                    <path d="M231.001761,172 C228.733425,172 226.461568,171.378765 224.492624,170.132957 L143.227034,118.757558 C139.961899,116.696798 138,113.21989 138,109.499165 C138,105.77844 139.961899,102.304873 143.227034,100.240771 L224.492624,48.8687128 C228.434033,46.3770957 233.569489,46.3770957 237.510898,48.8687128 L318.776488,100.240771 C322.041623,102.304873 324,105.77844 324,109.499165 C324,113.21989 322.041623,116.696798 318.776488,118.757558 L237.510898,170.132957 C235.541954,171.378765 233.270097,172 231.001761,172 Z" id="Path" fill="#FF3C7D"></path>
                    <path d="M324.001761,415 C321.729903,415 319.461567,414.37751 317.492624,413.129183 L236.223511,361.649933 C232.961899,359.585007 231,356.101071 231,352.372825 L231,266.151272 C231,259.993307 236.251689,255 242.732648,255 L405.263828,255 C408.377507,255 411.360861,256.174699 413.562274,258.266399 C415.763686,260.358099 417,263.192771 417,266.151272 L417,352.376171 C417,356.101071 415.0381,359.585007 411.772965,361.65328 L330.507375,413.129183 C328.538432,414.37751 326.270097,415 324.001761,415 L324.001761,415 Z" id="Path" fill="#FDBF00"></path>
                    <path d="M413.562209,258.266399 C411.360754,256.174699 408.377344,255 405.263606,255 L324,255 L324,415 C326.268379,415 328.536757,414.37751 330.50926,413.129183 L411.772866,361.65328 C415.038063,359.585007 417,356.101071 417,352.376171 L417,266.147925 C417,263.192771 415.763663,260.354752 413.562209,258.266399 L413.562209,258.266399 Z" id="Path" fill="#FF9100"></path>
                    <path d="M324.001761,329 C321.729903,329 319.461567,328.375443 317.492624,327.129667 L236.227034,275.758981 C232.961899,273.694935 231,270.22146 231,266.500835 C231,262.78021 232.961899,259.303394 236.227034,257.242689 L317.492624,205.868663 C321.434033,203.377112 326.569489,203.377112 330.510898,205.868663 L411.776488,257.242689 C415.0381,259.303394 417,262.78021 417,266.500835 C417,270.218121 415.041622,273.694935 411.776488,275.758981 L330.510898,327.129667 C328.538432,328.375443 326.270097,329 324.001761,329 L324.001761,329 Z" id="Path" fill="#AD0094"></path>
                    <path d="M138.001762,415 C135.729903,415 133.461568,414.37751 131.492625,413.129183 L50.2270352,361.649933 C46.9618997,359.585007 45,356.101071 45,352.372825 L45,266.151272 C45,259.993307 50.2552133,255 56.7326493,255 L219.263829,255 C222.377507,255 225.360861,256.174699 227.562274,258.266399 C229.763686,260.358099 231,263.192771 231,266.151272 L231,352.376171 C231,356.101071 229.038101,359.585007 225.772966,361.65328 L144.507376,413.129183 C142.538433,414.37751 140.270097,415 138.001762,415 L138.001762,415 Z" id="Path" fill="#FFF375"></path>
                    <path d="M227.562209,258.266399 C225.360755,256.174699 222.377343,255 219.267129,255 L138,255 L138,415 C140.268378,415 142.536757,414.37751 144.50926,413.129183 L225.772867,361.65328 C229.038064,359.585007 231,356.101071 231,352.376171 L231,266.147925 C231,263.192771 229.763663,260.354752 227.562209,258.266399 L227.562209,258.266399 Z" id="Path" fill="#FFDA2D"></path>
                    <path d="M138.001762,329 C135.729903,329 133.461568,328.375443 131.492625,327.129667 L50.2270352,275.758981 C46.9618997,273.694935 45,270.22146 45,266.500835 C45,262.78021 46.9618997,259.303394 50.2270352,257.242689 L131.492625,205.868663 C135.434033,203.377112 140.565967,203.377112 144.510899,205.868663 L225.772966,257.242689 C229.038101,259.303394 231,262.78021 231,266.500835 C231,270.22146 229.038101,273.694935 225.772966,275.758981 L144.510899,327.129667 C142.538433,328.375443 140.270097,329 138.001762,329 L138.001762,329 Z" id="Path" fill="#FF3C7D"></path>
                    <path d="M318.785277,100.238495 L237.65642,48.8648071 C235.641561,47.588899 233.317263,46.9709845 231,47 L231,171.996659 C231.052745,171.996659 231.10549,172 231.158235,172 C233.422754,172 235.690789,171.378746 237.65642,170.129558 L318.785277,118.755869 C322.044918,116.691703 324,113.218026 324,109.497182 C324,105.776339 322.044918,102.302662 318.785277,100.238495 Z" id="Path" fill="#AD0094"></path>
                </g>
                <g id="cube" transform="translate(462.000000, 0.000000)">
                    <path d="M9.2366624,270 C6.05208621,270 2.95643765,268.405709 1.24517851,265.551789 C-1.30969309,261.287177 0.192465416,255.82801 4.60280338,253.357556 L44.1444261,231.202493 C48.5547635,228.734363 54.200477,230.186888 56.7553486,234.449175 C59.3102196,238.713787 57.8056578,244.172954 53.3977231,246.643408 L13.8536971,268.796148 C12.3996077,269.611885 10.8061176,270 9.2366624,270 Z" id="Path" fill="#00347B"></path>
                    <path d="M306.763421,271 C305.191577,271 303.600505,270.611918 302.144025,269.796249 L262.602762,247.643044 C258.192464,245.172798 256.690319,239.714089 259.245167,235.449835 C261.800015,231.187905 267.445677,229.733179 271.855975,232.203425 L311.397238,254.35663 C315.807536,256.826876 317.309681,262.285585 314.754833,266.549839 C313.043589,269.40352 309.945565,271 306.763421,271 L306.763421,271 Z" id="Path" fill="#001737"></path>
                    <path d="M158,49 C153.029956,49 149,45.0108452 149,40.0887995 L149,8.90888006 C149,3.98915477 153.029956,0 158,0 C162.970045,0 167,3.98915477 167,8.90888006 L167,40.0887995 C167,45.0108452 162.972389,49 158,49 Z" id="Path" fill="#00347B"></path>
                    <path d="M158.179074,0 C158.117677,0 158.061397,0.00696202394 158,0.00928250056 L158,48.9907175 C158.058839,48.9907175 158.117677,49 158.179074,49 C163.602456,49 168,45.0108452 168,40.0887995 L168,8.90888006 C168,3.98915477 163.605014,0 158.179074,0 Z" id="Path" fill="#001737"></path>
                    <path d="M158.501202,179 C156.952393,179 155.401178,178.565835 154.056792,177.699826 L98.5689965,141.989165 C96.339576,140.554331 95,138.139723 95,135.553306 L95,75.736033 C95,71.464034 98.5882364,68.0023216 103.013407,68.0023216 L213.988998,68 C216.112599,68 218.152025,68.817252 219.652735,70.2660169 C221.15585,71.7171033 222,73.6859377 222,75.736033 L222,135.553306 C222,138.139723 220.662829,140.554331 218.431003,141.989165 L162.945613,177.699826 C161.601227,178.568157 160.050012,179 158.501202,179 Z" id="Path" fill="#FFDA2D"></path>
                    <path d="M219.636632,70.2660169 C218.121653,68.817252 216.066129,68 213.925766,68 L158,68.0023216 L158,179 C159.561035,179 161.124493,178.568157 162.479491,177.702149 L218.405257,141.989165 C220.652274,140.556653 222,138.139723 222,135.553306 L222,75.736033 C222,73.6859377 221.149187,71.7171033 219.636632,70.2660169 Z" id="Path" fill="#FDBF00"></path>
                    <path d="M158.501202,120 C156.952393,120 155.401178,119.567621 154.056792,118.700538 L98.5689965,82.9432604 C96.339576,81.5089711 95,79.0890437 95,76.4994187 C95,73.9097943 96.339576,71.4921913 98.5689965,70.0555769 L154.056792,34.3006241 C156.747969,32.5664586 160.254436,32.5664586 162.945613,34.3006241 L218.433408,70.0555769 C220.662829,71.4921913 222,73.9097943 222,76.4994187 C222,79.0890437 220.662829,81.5089711 218.433408,82.9432604 L162.945613,118.700538 C161.601227,119.567621 160.050012,120 158.501202,120 Z" id="Path" fill="#FF3C7D"></path>
                    <path d="M221.501202,289 C219.949988,289 218.401177,288.568147 217.056792,287.702121 L161.566591,251.988391 C159.339576,250.555849 158,248.138868 158,245.552397 L158,185.736195 C158,181.464106 161.585831,178 166.011002,178 L276.986592,178 C279.112599,178 281.14962,178.814947 282.652735,180.266064 C284.15585,181.717181 285,183.683735 285,185.736195 L285,245.554719 C285,248.138868 283.660423,250.555849 281.431003,251.990713 L225.943208,287.702121 C224.598822,288.568147 223.050012,289 221.501202,289 L221.501202,289 Z" id="Path" fill="#FDBF00"></path>
                    <path d="M282.634208,180.266064 C281.119228,178.814947 279.066129,178 276.923341,178 L221,178 L221,289 C222.561035,289 224.122069,288.568147 225.479491,287.702121 L281.402832,251.990713 C283.64985,250.555849 285,248.138868 285,245.554719 L285,185.733873 C285,183.683735 284.149187,181.714859 282.634208,180.266064 L282.634208,180.266064 Z" id="Path" fill="#FF9100"></path>
                    <path d="M221.501202,229 C219.949988,229 218.401177,228.565308 217.056792,227.698249 L161.568997,191.944251 C159.339576,190.507675 158,188.090136 158,185.500581 C158,182.911026 159.339576,180.491163 161.568997,179.056912 L217.056792,143.300589 C219.747968,141.56647 223.254436,141.56647 225.945613,143.300589 L281.433408,179.056912 C283.660423,180.491163 285,182.911026 285,185.500581 C285,188.087812 283.662828,190.507675 281.433408,191.944251 L225.945613,227.698249 C224.598822,228.565308 223.050012,229 221.501202,229 L221.501202,229 Z" id="Path" fill="#AD0094"></path>
                    <path d="M94.501203,289 C92.9499878,289 91.401178,288.568147 90.0567923,287.702121 L34.5689971,251.988391 C32.3395767,250.555849 31,248.138868 31,245.552397 L31,185.736195 C31,181.464106 34.588237,178 39.0110025,178 L149.986593,178 C152.112599,178 154.14962,178.814947 155.652735,180.266064 C157.15585,181.717181 158,183.683735 158,185.736195 L158,245.554719 C158,248.138868 156.660424,250.555849 154.431003,251.990713 L98.9432084,287.702121 C97.5988227,288.568147 96.0500122,289 94.501203,289 L94.501203,289 Z" id="Path" fill="#FFF375"></path>
                    <path d="M155.634208,180.266064 C154.119229,178.814947 152.066129,178 149.925766,178 L94,178 L94,289 C95.5610341,289 97.1220695,288.568147 98.479491,287.702121 L154.402833,251.990713 C156.649851,250.555849 158,248.138868 158,245.554719 L158,185.733873 C158,183.683735 157.149187,181.714859 155.634208,180.266064 L155.634208,180.266064 Z" id="Path" fill="#FFDA2D"></path>
                    <path d="M94.501203,229 C92.9499878,229 91.401178,228.565308 90.0567923,227.698249 L34.5689971,191.944251 C32.3395767,190.507675 31,188.090136 31,185.500581 C31,182.911026 32.3395767,180.491163 34.5689971,179.056912 L90.0567923,143.300589 C92.7479691,141.56647 96.2520315,141.56647 98.9456138,143.300589 L154.431003,179.056912 C156.660424,180.491163 158,182.911026 158,185.500581 C158,188.090136 156.660424,190.507675 154.431003,191.944251 L98.9456138,227.698249 C97.5988227,228.565308 96.0500122,229 94.501203,229 L94.501203,229 Z" id="Path" fill="#FF3C7D"></path>
                    <path d="M218.411373,70.0539927 L162.580762,34.2979057 C161.194192,33.4098737 159.594676,32.9798052 158,33 L158,119.997675 C158.036298,119.997675 158.072595,120 158.108893,120 C159.667271,120 161.22807,119.567607 162.580762,118.698172 L218.411373,82.9420849 C220.654567,81.5054256 222,79.087746 222,76.4980388 C222,73.9083323 220.654567,71.4906526 218.411373,70.0539927 Z" id="Path" fill="#AD0094"></path>
                </g>
                <g id="cube" transform="translate(0.000000, 436.000000)">
                    <path d="M13.536488,388 C8.86943668,388 4.33271035,385.688278 1.82483058,381.550094 C-1.9193778,375.366407 0.282061386,367.450615 6.74548772,363.868457 L64.6944176,331.743615 C71.157843,328.164827 79.4317336,330.270988 83.1759419,336.451304 C86.9201494,342.634991 84.7151881,350.550784 78.2552839,354.132942 L20.3028319,386.254414 C18.1718388,387.437234 15.8365517,388 13.536488,388 Z" id="Path" fill="#00347B"></path>
                    <path d="M448.463635,389 C446.16007,389 443.828326,388.437282 441.69383,387.254561 L383.745427,355.132414 C377.282059,351.550557 375.08064,343.635429 378.824813,337.452261 C382.568988,331.272463 390.842803,329.163109 397.30617,332.744966 L455.254574,364.867113 C461.717941,368.44897 463.91936,376.364099 460.175186,382.547267 C457.667329,386.685103 453.127122,389 448.463635,389 L448.463635,389 Z" id="Path" fill="#001737"></path>
                    <path d="M231.5,71 C224.044934,71 218,65.2197962 218,58.0878523 L218,12.9087854 C218,5.78020384 224.044934,0 231.5,0 C238.955067,0 245,5.78020384 245,12.9087854 L245,58.0878523 C245,65.2197962 238.958583,71 231.5,71 Z" id="Path" fill="#00347B"></path>
                    <path d="M231.250704,0 C231.164748,0 231.085955,0.0100878306 231,0.0134501539 L231,70.9865498 C231.082374,70.9865498 231.164748,71 231.250704,71 C238.843439,71 245,65.2197962 245,58.0878523 L245,12.9087854 C245,5.78020384 238.84702,0 231.250704,0 Z" id="Path" fill="#001737"></path>
                    <path d="M231.001761,258 C228.733425,258 226.461568,257.374177 224.492624,256.125876 L143.227034,204.651049 C139.961899,202.58282 138,199.102303 138,195.374135 L138,109.151039 C138,102.993202 143.255212,98.0033464 149.736171,98.0033464 L312.267351,98 C315.377507,98 318.364384,99.1780209 320.562274,101.266331 C322.763686,103.357987 324,106.195946 324,109.151039 L324,195.374135 C324,199.102303 322.041623,202.58282 318.772966,204.651049 L237.510898,256.125876 C235.541954,257.377523 233.270097,258 231.001761,258 Z" id="Path" fill="#FFDA2D"></path>
                    <path d="M320.565731,101.266331 C318.364277,99.1780209 315.377344,98 312.267129,98 L231,98.0033464 L231,258 C233.268379,258 235.540279,257.377523 237.50926,256.129223 L318.776389,204.651049 C322.041586,202.586166 324,199.102303 324,195.374135 L324,109.151039 C324,106.195946 322.763663,103.357987 320.565731,101.266331 Z" id="Path" fill="#FDBF00"></path>
                    <path d="M231.001761,172 C228.733425,172 226.461568,171.378765 224.492624,170.132957 L143.227034,118.757558 C139.961899,116.696798 138,113.21989 138,109.499165 C138,105.77844 139.961899,102.304873 143.227034,100.240771 L224.492624,48.8687128 C228.434033,46.3770957 233.569489,46.3770957 237.510898,48.8687128 L318.776488,100.240771 C322.041623,102.304873 324,105.77844 324,109.499165 C324,113.21989 322.041623,116.696798 318.776488,118.757558 L237.510898,170.132957 C235.541954,171.378765 233.270097,172 231.001761,172 Z" id="Path" fill="#FF3C7D"></path>
                    <path d="M324.001761,415 C321.729903,415 319.461567,414.37751 317.492624,413.129183 L236.223511,361.649933 C232.961899,359.585007 231,356.101071 231,352.372825 L231,266.151272 C231,259.993307 236.251689,255 242.732648,255 L405.263828,255 C408.377507,255 411.360861,256.174699 413.562274,258.266399 C415.763686,260.358099 417,263.192771 417,266.151272 L417,352.376171 C417,356.101071 415.0381,359.585007 411.772965,361.65328 L330.507375,413.129183 C328.538432,414.37751 326.270097,415 324.001761,415 L324.001761,415 Z" id="Path" fill="#FDBF00"></path>
                    <path d="M413.562209,258.266399 C411.360754,256.174699 408.377344,255 405.263606,255 L324,255 L324,415 C326.268379,415 328.536757,414.37751 330.50926,413.129183 L411.772866,361.65328 C415.038063,359.585007 417,356.101071 417,352.376171 L417,266.147925 C417,263.192771 415.763663,260.354752 413.562209,258.266399 L413.562209,258.266399 Z" id="Path" fill="#FF9100"></path>
                    <path d="M324.001761,329 C321.729903,329 319.461567,328.375443 317.492624,327.129667 L236.227034,275.758981 C232.961899,273.694935 231,270.22146 231,266.500835 C231,262.78021 232.961899,259.303394 236.227034,257.242689 L317.492624,205.868663 C321.434033,203.377112 326.569489,203.377112 330.510898,205.868663 L411.776488,257.242689 C415.0381,259.303394 417,262.78021 417,266.500835 C417,270.218121 415.041622,273.694935 411.776488,275.758981 L330.510898,327.129667 C328.538432,328.375443 326.270097,329 324.001761,329 L324.001761,329 Z" id="Path" fill="#AD0094"></path>
                    <path d="M138.001762,415 C135.729903,415 133.461568,414.37751 131.492625,413.129183 L50.2270352,361.649933 C46.9618997,359.585007 45,356.101071 45,352.372825 L45,266.151272 C45,259.993307 50.2552133,255 56.7326493,255 L219.263829,255 C222.377507,255 225.360861,256.174699 227.562274,258.266399 C229.763686,260.358099 231,263.192771 231,266.151272 L231,352.376171 C231,356.101071 229.038101,359.585007 225.772966,361.65328 L144.507376,413.129183 C142.538433,414.37751 140.270097,415 138.001762,415 L138.001762,415 Z" id="Path" fill="#FFF375"></path>
                    <path d="M227.562209,258.266399 C225.360755,256.174699 222.377343,255 219.267129,255 L138,255 L138,415 C140.268378,415 142.536757,414.37751 144.50926,413.129183 L225.772867,361.65328 C229.038064,359.585007 231,356.101071 231,352.376171 L231,266.147925 C231,263.192771 229.763663,260.354752 227.562209,258.266399 L227.562209,258.266399 Z" id="Path" fill="#FFDA2D"></path>
                    <path d="M138.001762,329 C135.729903,329 133.461568,328.375443 131.492625,327.129667 L50.2270352,275.758981 C46.9618997,273.694935 45,270.22146 45,266.500835 C45,262.78021 46.9618997,259.303394 50.2270352,257.242689 L131.492625,205.868663 C135.434033,203.377112 140.565967,203.377112 144.510899,205.868663 L225.772966,257.242689 C229.038101,259.303394 231,262.78021 231,266.500835 C231,270.22146 229.038101,273.694935 225.772966,275.758981 L144.510899,327.129667 C142.538433,328.375443 140.270097,329 138.001762,329 L138.001762,329 Z" id="Path" fill="#FF3C7D"></path>
                    <path d="M318.785277,100.238495 L237.65642,48.8648071 C235.641561,47.588899 233.317263,46.9709845 231,47 L231,171.996659 C231.052745,171.996659 231.10549,172 231.158235,172 C233.422754,172 235.690789,171.378746 237.65642,170.129558 L318.785277,118.755869 C322.044918,116.691703 324,113.218026 324,109.497182 C324,105.776339 322.044918,102.302662 318.785277,100.238495 Z" id="Path" fill="#AD0094"></path>
                </g>
            </g>
        </g>
    </g>
</svg>